<svg width="256" height="256" xmlns="http://www.w3.org/2000/svg" fill="none">
 <mask fill="white" id="path-1-inside-1_761_2">
  <path id="svg_1" d="m13.7439,179c-2.7614,0 -5.02934,2.249 -4.71465,4.992c4.26015,37.139 55.69175,66.472 118.51175,66.472c62.82,0 114.252,-29.333 118.512,-66.472c0.315,-2.743 -1.953,-4.992 -4.715,-4.992l-227.5941,0z" clip-rule="evenodd" fill-rule="evenodd"/>
 </mask>

 <g>
  <title>Layer 1</title>
  <path stroke-width="4" id="svg_2" fill="#F0FF00" d="m13.7439,179c-2.7614,0 -5.02934,2.249 -4.71465,4.992c4.26015,37.139 55.69175,66.472 118.51175,66.472c62.82,0 114.252,-29.333 118.512,-66.472c0.315,-2.743 -1.953,-4.992 -4.715,-4.992l-227.5941,0z" clip-rule="evenodd" fill-rule="evenodd"/>
  <path stroke-width="5" stroke="#000000" id="svg_3" mask="url(#path-1-inside-1_761_2)" fill="#000000" d="m245.47048,183.992l3.974,0.456l-3.974,-0.456zm-118.512,62.472c-30.8278,0 -58.6942,-7.204 -79.2515,-18.793c-20.6413,-11.637 -33.3586,-27.329 -35.2863,-44.135l-7.94789,0.912c2.33244,20.334 17.46099,37.877 39.30549,50.192c21.9286,12.362 51.1881,19.824 83.1802,19.824l0,-8zm114.538,-62.928c-1.928,16.806 -14.645,32.498 -35.286,44.135c-20.558,11.589 -48.424,18.793 -79.252,18.793l0,8c31.992,0 61.252,-7.462 83.18,-19.824c21.845,-12.315 36.974,-29.858 39.306,-50.192l-7.948,-0.912zm-0.741,-8.536l-227.5941,0l0,8l227.5941,0l0,-8zm8.689,9.448c0.622,-5.422 -3.855,-9.448 -8.689,-9.448l0,8c0.291,0 0.511,0.118 0.632,0.244c0.058,0.06 0.085,0.112 0.097,0.147c0.011,0.03 0.021,0.072 0.012,0.145l7.948,0.912zm-237.0238,-0.912c-0.0084,-0.073 0.0013,-0.115 0.0117,-0.145c0.0125,-0.035 0.0397,-0.087 0.0974,-0.147c0.1215,-0.126 0.3405,-0.244 0.6316,-0.244l0,-8c-4.83372,0 -9.31055,4.026 -8.68859,9.448l7.94789,-0.912z"/>
  <rect id="svg_4" fill="#F0FF00" height="140" width="48" y="43" x="104"/>
  <rect stroke="#000000" fill="none" id="svg_5" stroke-width="7" height="136" width="44" y="45" x="106"/>
  <path id="svg_6" fill="#F0FF00" d="m112.526,5l30.948,0l33.526,51l-98,0l33.526,-51z"/>
  <path id="svg_7" stroke-width="7" stroke="#000000" d="m82.7082,54l30.8968,-47l28.79,0l30.897,47l-90.5838,0z"/>
  <path id="svg_8" fill="#F0FF00" d="m119.789,5l16.422,0l17.789,51l-52,0l17.789,-51z"/>
  <path id="svg_9" stroke-width="7" stroke="#000000" d="m104.816,54l16.394,-47l13.58,0l16.394,47l-46.368,0z"/>
 </g>
</svg>