<svg width="256" height="256" xmlns="http://www.w3.org/2000/svg" fill="none">
 <mask fill="white" id="path-1-inside-1_761_26">
  <path id="svg_1" d="m128,248c66.274,0 120,-53.726 120,-120c0,-66.2742 -53.726,-120 -120,-120c-66.2742,0 -120,53.7258 -120,120c0,66.274 53.7258,120 120,120zm0,-79c22.644,0 41,-18.356 41,-41c0,-22.644 -18.356,-41 -41,-41c-22.644,0 -41,18.356 -41,41c0,22.644 18.356,41 41,41z" clip-rule="evenodd" fill-rule="evenodd"/>
 </mask>

 <g>
  <title>Layer 1</title>
  <path id="svg_2" fill="#3B82F6" d="m128,248c66.274,0 120,-53.726 120,-120c0,-66.2742 -53.726,-120 -120,-120c-66.2742,0 -120,53.7258 -120,120c0,66.274 53.7258,120 120,120zm0,-79c22.644,0 41,-18.356 41,-41c0,-22.644 -18.356,-41 -41,-41c-22.644,0 -41,18.356 -41,41c0,22.644 18.356,41 41,41z" clip-rule="evenodd" fill-rule="evenodd"/>
  <path stroke-width="7" stroke="#000000" id="svg_3" mask="url(#path-1-inside-1_761_26)" fill-opacity="0.5" fill="black" d="m244,128c0,64.065 -51.935,116 -116,116l0,8c68.483,0 124,-55.517 124,-124l-8,0zm-116,-116c64.065,0 116,51.935 116,116l8,0c0,-68.4833 -55.517,-124 -124,-124l0,8zm-116,116c0,-64.065 51.935,-116 116,-116l0,-8c-68.4833,0 -124,55.5167 -124,124l8,0zm116,116c-64.065,0 -116,-51.935 -116,-116l-8,0c0,68.483 55.5167,124 124,124l0,-8zm37,-116c0,20.435 -16.565,37 -37,37l0,8c24.853,0 45,-20.147 45,-45l-8,0zm-37,-37c20.435,0 37,16.565 37,37l8,0c0,-24.853 -20.147,-45 -45,-45l0,8zm-37,37c0,-20.435 16.565,-37 37,-37l0,-8c-24.853,0 -45,20.147 -45,45l8,0zm37,37c-20.435,0 -37,-16.565 -37,-37l-8,0c0,24.853 20.147,45 45,45l0,-8z"/>
 </g>
</svg>