<svg width="512" height="512" viewBox="0 0 512 512" fill="none" xmlns="http://www.w3.org/2000/svg">
<rect width="512" height="512" rx="73" fill="white"/>
<path d="M83.4086 294.33C51.2676 326.471 49.5995 375.338 94.835 420.573C140.071 465.809 185.045 461.068 217.186 428.927C242.761 403.352 259.084 373.734 234.612 333.631L282.243 286.001L278.799 249.975L289.539 239.235L304.006 239.235L321.35 221.891L319.259 214.044L335.974 197.329L357.03 202.974L371.166 188.838V170.503L383.337 158.332H404.503L417.79 145.044L417.79 92.0517L409.975 84.2365L402.66 89.2447L370.13 89.0272L179.733 279.569C140.156 256.284 108.548 269.19 83.4086 294.33ZM101.691 352.255C112.008 341.938 133.406 349.889 149.463 365.946C165.519 382.002 170.189 403.4 159.873 413.717C149.556 424.034 128.141 419.38 112.085 403.323C96.0286 387.267 91.3741 362.572 101.691 352.255Z" fill="#201E12"/>
</svg>
